<?xml version="1.0" encoding="utf-8"?>
<!-- Generator: $$$/GeneralStr/196=Adobe Illustrator 27.6.0, SVG Export Plug-In . SVG Version: 6.00 Build 0)  -->
<svg version="1.1" id="Calque_1" xmlns="http://www.w3.org/2000/svg" xmlns:xlink="http://www.w3.org/1999/xlink" x="0px" y="0px"
	 viewBox="0 0 595.3 841.9" style="enable-background:new 0 0 595.3 841.9;" xml:space="preserve">
<style type="text/css">
	.st0{fill:none;}
	.st1{fill:#FAE6DB;}
	.st2{fill:#252D3B;}
	.st3{fill:#8F6FF1;}
	.st4{fill:none;stroke:#FFFFFF;stroke-width:0.5;stroke-linecap:round;stroke-miterlimit:10;}
	.st5{fill:#FFFFFF;}
	.st6{fill:none;stroke:#252D3B;stroke-width:0.5;stroke-linecap:round;stroke-miterlimit:10;}
	.st7{fill:#19154B;}
	.st8{fill:#7F53F2;}
	.st9{fill:#AF8CFF;}
	.st10{fill:#F2B45A;stroke:#252D3B;stroke-width:0.5;stroke-linecap:round;stroke-miterlimit:10;}
</style>
<path id="Tracé_217" class="st0" d="M523.4,55.8"/>
<path id="Tracé_218" class="st1" d="M401.9,205.5c0,74.9-60.7,135.7-135.7,135.7s-135.7-60.7-135.7-135.7S191.3,69.8,266.2,69.8
	c0,0,0,0,0,0C341.2,69.8,401.9,130.6,401.9,205.5"/>
<path id="Tracé_219" class="st2" d="M228.8,541L72.9,621.9c0,0,245.9,163.8,467.4-11.3C540.2,610.6,378.8,528.5,228.8,541"/>
<path id="Tracé_220" class="st3" d="M241.4,488.6c0,0-100.4,25.1-143.4,77.1c0,0,87.3,68.9,293,36.9c31.5-5,62.2-13.8,91.5-26.3
	l20.7-8.8C503.2,567.5,445.8,458.1,241.4,488.6"/>
<path id="Tracé_221" class="st4" d="M158.8,406.5c0,0,1.3,30.1,23.5,41"/>
<path id="Tracé_222" class="st5" d="M450,181.3c7.6-6,22.9-5,31,4.8c5,6,8.3,16.4,6.3,24l12.8,23.9c0,0-19.1,8.5-33.6,5.3
	c0,0,1.5-6.3-1.4-12c-1.9,0.7-4,0.7-5.8-0.1c-7-3.5-9.1-12.6-9.1-12.6s-3.5,1.7-4.3,0.6c-0.8-1,1.4-6.6-0.2-10.7
	C444,200.3,442.4,187.3,450,181.3"/>
<path id="Tracé_223" class="st6" d="M450,181.3c7.6-6,22.9-5,31,4.8c5,6,8.3,16.4,6.3,24l12.8,23.9c0,0-19.1,8.5-33.6,5.3
	c0,0,1.5-6.3-1.4-12c-1.9,0.7-4,0.7-5.8-0.1c-7-3.5-9.1-12.6-9.1-12.6s-3.5,1.7-4.3,0.6c-0.8-1,1.4-6.6-0.2-10.7
	C444,200.3,442.4,187.3,450,181.3z"/>
<path id="Tracé_224" class="st7" d="M487.2,214.7c0.9,1.2,2.7,1.4,3.9,0.5c0.7-0.5,1.1-1.4,1.1-2.3c0-2.8,0.3-5.5,1-8.2
	c2.9-13.2-5-36.8-28.6-36.5c-20.5,0.3-23.4,14.8-19.5,19.9c0.8,1.1,2.4,1.4,3.6,0.6c3.6-2.2,13.8-7.4,25.6-5.1
	c1.1,0.2,1.9,1.1,2.1,2.2C477.1,190.9,480.1,205.5,487.2,214.7"/>
<path id="Tracé_225" class="st7" d="M488.4,215.7c-6.5-2.5-11.9-7.3-15-13.5l-4.2,0.9c0,0-5.7-2.4-5.9-15.1c0,0-18.4,6.6-25.3-3.1
	c-6.9-9.7,16.4-12.6,28.7-11.6S491.6,205,488.4,215.7"/>
<path id="Tracé_226" class="st5" d="M468.3,204.1c0,0-1-7.5,4.9-7.2s5.6,12.3,1.1,12.7C469.9,209.9,468.3,204.1,468.3,204.1"/>
<path id="Tracé_227" class="st5" d="M470.5,204.7c0,0-1.2-4.6,3.5-4.4"/>
<path id="Tracé_228" class="st6" d="M470.5,204.7c0,0-1.2-4.6,3.5-4.4"/>
<path id="Tracé_229" class="st2" d="M453,206.2c0,1-0.4,1.9-0.9,1.9c-0.5,0-0.9-0.8-0.9-1.9s0.4-1.9,0.9-1.9S453,205.2,453,206.2"
	/>
<path id="Tracé_230" class="st2" d="M454.4,202.3c-1.2-0.3-2.5-0.4-3.8-0.2c-2.1,0.3-1.8-2.3,1-2
	C454.5,200.5,455.4,202.4,454.4,202.3"/>
<path id="Tracé_231" class="st2" d="M464.5,226.8c0,0,8.6-3.7,9.3-2.6s-5.6,11.1-7.1,9.6C466.5,233.7,466.6,229,464.5,226.8"/>
<path id="Tracé_232" class="st5" d="M456,219.8c-0.3,1-1.1,1.8-2.2,2.1"/>
<path id="Tracé_233" class="st6" d="M456,219.8c-0.3,1-1.1,1.8-2.2,2.1"/>
<path id="Tracé_234" class="st2" d="M419.4,350.4c0,0-69.1-70.5-103.9-66.1c-34.8,4.4-79.2,127.9-79.2,127.9l48.4-6.6l31.1-14.8
	c0,0,46.7,31,86.5,28.8C442,417.3,419.4,350.4,419.4,350.4"/>
<path id="Tracé_235" class="st5" d="M97.4,371c0.6,2,39,84,39,84s33.6-7.5,88.4-7.5c-1.8-22.2-8.7-43.8-20.1-62.9
	c-58.9,18.9-85.2-4.1-94.5-10.1C102.6,369.7,97.1,370.2,97.4,371"/>
<path id="Tracé_236" class="st6" d="M97.4,371c0.6,2,39,84,39,84s33.6-7.5,88.4-7.5c-1.8-22.2-8.7-43.8-20.1-62.9
	c-58.9,18.9-85.2-4.1-94.5-10.1C102.6,369.7,97.1,370.2,97.4,371z"/>
<path id="Tracé_237" class="st2" d="M204.8,384c11.4,19.4,18.2,41.1,20,63.5c23.2,0,48.7-0.1,74.3-0.3c78.5-0.6,157.3-2.6,171-7.9
	c8.2-3.2,17-19,25.3-40.8c-31.1-4.6-73.8-25-93.1-34.9c-7.3,0.3-53.8,2.2-113.7,7c-10.6,0.9-5.7-7.7-16-5
	C246.1,372.4,222.2,381,204.8,384"/>
<path id="Tracé_238" class="st8" d="M380.9,355.4c14,15.7,49.2,45.6,116,48.6c19-43.5,28.1-93.5,27.8-110.5
	c-0.6-36.8-9.5-63.4-39.4-61.8c-17.1,0.9-54.5,27.6-66.4,67.2c-3.6,11.7-9,22.8-16,32.8C396.7,340.6,389.3,348.6,380.9,355.4"/>
<path id="Tracé_239" class="st5" d="M359.1,235.7c0,0-0.3,14.8,2,25.2c0.5,2.1,2.4,3.4,4.5,3.2c0,0,0.3,0.1,1,0.4
	c-1.3-4.9-2.1-10-2.4-15.1c0,0,8.8-2.8,11.6,8.2c2.8,11,11.6,17.3,11.5,17.5c14.8,8.4,34.7,21.6,52,39.2c0,0,23.1-52,38.4-50.7
	s26.6,1.3,26.6,1.3s7.9,86.8-41.9,101.2S350,305.1,349.6,269.7S359.1,235.7,359.1,235.7"/>
<path id="Tracé_240" class="st6" d="M359.1,235.7c0,0-0.3,14.8,2,25.2c0.5,2.1,2.4,3.4,4.5,3.2c0,0,0.3,0.1,1,0.4
	c-1.3-4.9-2.1-10-2.4-15.1c0,0,8.8-2.8,11.6,8.2c2.8,11,11.6,17.3,11.5,17.5c14.8,8.4,34.7,21.6,52,39.2c0,0,23.1-52,38.4-50.7
	s26.6,1.3,26.6,1.3s7.9,86.8-41.9,101.2S350,305.1,349.6,269.7S359.1,235.7,359.1,235.7z"/>
<path id="Tracé_241" class="st5" d="M489.2,240.3c0,0,39.8-1.6,17.7,75.5c0.3,0.6-38.8-5.3-71.9-19.9
	C435,296,458.7,240.3,489.2,240.3"/>
<path id="Tracé_242" class="st6" d="M489.2,240.3c0,0,39.8-1.6,17.7,75.5c0.3,0.6-38.8-5.3-71.9-19.9
	C435,296,458.7,240.3,489.2,240.3z"/>
<path id="Tracé_243" class="st5" d="M492.9,240.6c0,0-8.1,41-21.5,66.9"/>
<path id="Tracé_244" class="st6" d="M492.9,240.6c0,0-8.1,41-21.5,66.9"/>
<path id="Tracé_245" class="st2" d="M370.1,274l3.8-1.8c1.4-0.7,2-2.4,1.4-3.8L352.6,220c-0.7-1.4-2.4-2-3.8-1.4c0,0,0,0,0,0
	l-3.8,1.8c-1.4,0.7-2,2.4-1.4,3.8l22.6,48.5C366.9,274.1,368.6,274.7,370.1,274C370.1,274,370.1,274,370.1,274"/>
<path id="Tracé_246" class="st5" d="M448.7,325.4c0,0-5-6.4-9.4-11.1"/>
<path id="Tracé_247" class="st6" d="M448.7,325.4c0,0-5-6.4-9.4-11.1"/>
<path id="Tracé_248" class="st4" d="M247.5,372.2c0,0,59.6-18.7,112.1-13.8"/>
<path id="Tracé_249" class="st5" d="M144,389.8c0,0,3.8,8-0.7,21.5s5.9,35.7,5.9,35.7"/>
<path id="Tracé_250" class="st6" d="M144,389.8c0,0,3.8,8-0.7,21.5s5.9,35.7,5.9,35.7"/>
<path id="Tracé_251" class="st2" d="M445.9,300.7c0,0,22.1,20.1,52.7,22.1l2.5-7.1C501,315.6,466.9,308.7,445.9,300.7"/>
<path id="Tracé_252" class="st5" d="M81.9,465.7c0,0,175.2-82.7,430.6-19.5c0,0-29.3,84.5-187.3,87.6
	C106.1,538.1,81.9,465.7,81.9,465.7"/>
<path id="Tracé_253" class="st6" d="M81.9,465.7c0,0,175.2-82.7,430.6-19.5c0,0-29.3,84.5-187.3,87.6
	C106.1,538.1,81.9,465.7,81.9,465.7z"/>
<path id="Tracé_257" class="st5" d="M81.9,465.7c6.5-2.8,247.3,45.2,430.6-19.5"/>
<path id="Tracé_258" class="st6" d="M81.9,465.7c6.5-2.8,247.3,45.2,430.6-19.5"/>
<path id="Tracé_259" class="st4" d="M98,565.7c1.9-8.1,199,11.6,405.2,1.8"/>
<path id="Tracé_260" class="st4" d="M81.2,621.2c0,0,52.1-2.1,166.7,19.8s244.1-3.4,292.4-30.4"/>
<path id="Tracé_261" class="st5" d="M98.6,565.4c0,3.8-3.1,6.9-6.9,6.9c-3.8,0-6.9-3.1-6.9-6.9c0-3.8,3.1-6.9,6.9-6.9
	C95.5,558.5,98.6,561.6,98.6,565.4C98.6,565.4,98.6,565.4,98.6,565.4"/>
<circle id="Ellipse_12" class="st6" cx="91.7" cy="565.4" r="6.9"/>
<path id="Tracé_262" class="st5" d="M84.8,565.4c0,0-14.3-16.5-31.9,11.4"/>
<path id="Tracé_263" class="st6" d="M84.8,565.4c0,0-14.3-16.5-31.9,11.4"/>
<path id="Tracé_264" class="st5" d="M85.6,570.3c0,0-19.3-2.9-17.6,20.5"/>
<path id="Tracé_265" class="st6" d="M85.6,570.3c0,0-19.3-2.9-17.6,20.5"/>
<path id="Tracé_266" class="st5" d="M497.2,565.4c0,3.8,3.1,6.9,6.9,6.9c3.8,0,6.9-3.1,6.9-6.9s-3.1-6.9-6.9-6.9c0,0,0,0,0,0
	C500.3,558.5,497.2,561.6,497.2,565.4C497.2,565.4,497.2,565.4,497.2,565.4"/>
<circle id="Ellipse_13" class="st6" cx="504.1" cy="565.4" r="6.9"/>
<path id="Tracé_267" class="st5" d="M511,565.4c0,0,14.3-16.5,31.9,11.4"/>
<path id="Tracé_268" class="st6" d="M511,565.4c0,0,14.3-16.5,31.9,11.4"/>
<path id="Tracé_269" class="st5" d="M510.2,570.3c0,0,19.3-2.9,17.6,20.5"/>
<path id="Tracé_270" class="st6" d="M510.2,570.3c0,0,19.3-2.9,17.6,20.5"/>
<path id="Tracé_271" class="st9" d="M364.7,174.6c0,3.6-2.9,6.5-6.5,6.5c-3.6,0-6.5-2.9-6.5-6.5c0-3.6,2.9-6.5,6.5-6.5
	C361.8,168.1,364.7,171.1,364.7,174.6C364.7,174.6,364.7,174.6,364.7,174.6"/>
<path id="Tracé_272" class="st5" d="M302.8,135.4c0,3.6-2.9,6.5-6.5,6.5c-3.6,0-6.5-2.9-6.5-6.5s2.9-6.5,6.5-6.5l0,0
	C299.9,128.9,302.8,131.8,302.8,135.4"/>
<path id="Tracé_273" class="st10" d="M302.8,135.4c0,3.6-2.9,6.5-6.5,6.5c-3.6,0-6.5-2.9-6.5-6.5s2.9-6.5,6.5-6.5l0,0
	C299.9,128.9,302.8,131.8,302.8,135.4z"/>
<rect id="Rectangle_180" x="51.9" y="69.8" class="st0" width="492" height="621.6"/>
</svg>
