<?xml version="1.0" encoding="UTF-8"?>
<svg id="Calque_1" data-name="Calque 1" xmlns="http://www.w3.org/2000/svg" viewBox="0 0 471.5 351.5">
  <defs>
    <style>
      .cls-1, .cls-2, .cls-3, .cls-4, .cls-5, .cls-6 {
        fill: none;
      }

      .cls-7 {
        fill: #e97e3e;
      }

      .cls-8 {
        fill: #fff;
      }

      .cls-9 {
        fill: #f2b45a;
      }

      .cls-10 {
        fill: #fae6db;
      }

      .cls-11 {
        fill: #8f6ff1;
      }

      .cls-12 {
        fill: #141f2c;
      }

      .cls-13 {
        fill: #19154b;
      }

      .cls-14 {
        fill: #0a1435;
      }

      .cls-2, .cls-3, .cls-4, .cls-5, .cls-6 {
        stroke-linecap: round;
        stroke-miterlimit: 10;
      }

      .cls-2, .cls-4 {
        stroke: #fff;
      }

      .cls-3 {
        stroke: #897ab6;
      }

      .cls-3, .cls-4, .cls-5, .cls-6 {
        stroke-width: .5px;
      }

      .cls-5 {
        stroke: #141f2c;
      }

      .cls-6 {
        stroke: #19154b;
      }
    </style>
  </defs>
  <g id="Groupe_55" data-name="Groupe 55">
    <path id="Tracé_171" data-name="Tracé 171" class="cls-10" d="m117.8,134.2c0,74.1,60.1,134.2,134.2,134.2s134.2-60.1,134.2-134.2S326.1,0,252,0C177.9,0,117.8,60.1,117.8,134.2c0,0,0,0,0,0"/>
    <path id="Tracé_172" data-name="Tracé 172" class="cls-13" d="m128.6,173.1s-42.8,5.5-52.5-23c0,0,6.9,3.2,12-13.4s25.8-51.6,56.6-38.2c0,0,6.3-8.3,18.9-2.8,14,6.2,19.7,35.4,0,42.6-19.7,7.2-34.9,34.8-34.9,34.8"/>
    <path id="Tracé_173" data-name="Tracé 173" class="cls-8" d="m207.8,204.7c-27.2-23.3-50.5-15.3-68.4-17.3-50.2-5.4-71.2,5.2-103.7,79.1-8.7,19.8-17.2,31.3-17.1,53.2.2,42.5,140.5,25.9,140.5,25.9,0,0,95-4.7,152.2-6,0,0-67.9-18.6-79-62.2-9.6-37.6-2.9-54.2-24.5-72.7"/>
    <path id="Tracé_174" data-name="Tracé 174" class="cls-6" d="m207.8,204.7c-27.2-23.3-50.5-15.3-68.4-17.3-50.2-5.4-71.2,5.2-103.7,79.1-8.7,19.8-17.2,31.3-17.1,53.2.2,42.5,140.5,25.9,140.5,25.9,0,0,95-4.7,152.2-6,0,0-67.9-18.6-79-62.2-9.6-37.6-2.9-54.2-24.5-72.7Z"/>
    <path id="Tracé_175" data-name="Tracé 175" class="cls-4" d="m190.5,247.7s8.4,14.1,4.6,29.4-13,42.7-10.1,58.7"/>
    <path id="Tracé_176" data-name="Tracé 176" class="cls-8" d="m159.5,308.3s-62.1-29.8-93.3-14.8"/>
    <path id="Tracé_177" data-name="Tracé 177" class="cls-5" d="m159.5,308.3s-62.1-29.8-93.3-14.8"/>
    <path id="Tracé_178" data-name="Tracé 178" class="cls-8" d="m99.2,255.2s-10.8,11.5-16.5,33.7"/>
    <path id="Tracé_179" data-name="Tracé 179" class="cls-5" d="m99.2,255.2s-10.8,11.5-16.5,33.7"/>
    <path id="Tracé_180" data-name="Tracé 180" class="cls-8" d="m151.3,124.2c6.7-4.3,15.6-9.7,16.9-.7.8,5.8.8,10.8,3,19.5,4.7,18.8-7.6,31.8-25.3,26.6-18.1-5.3-22.2-13.2-21.5-35.5.5-16.3,10-10.5,10-10.5,0,0,6.7,7,16.9.5"/>
    <path id="Tracé_181" data-name="Tracé 181" class="cls-12" d="m164.9,135.6c0,1.5-.6,2.7-1.3,2.7s-1.3-1.2-1.3-2.7.6-2.7,1.3-2.7,1.3,1.2,1.3,2.7"/>
    <path id="Tracé_182" data-name="Tracé 182" class="cls-12" d="m147.6,137.4c.4,1.4,0,2.8-.6,3s-1.6-.7-1.9-2.1,0-2.8.6-3,1.6.7,1.9,2.1"/>
    <path id="Tracé_183" data-name="Tracé 183" class="cls-8" d="m159.2,170.1s-1.7,9,3.8,16.6c0,0,4.4,14.8,0,30.1-1.1,3.5-4.8,5.5-8.3,4.4-.9-.3-1.7-.7-2.4-1.3-7.8-6.5-19.5-18.2-22.8-31,0,0,.6-23.2-2.4-35.4,0,0,30.1,14.9,32.1,16.5"/>
    <path id="Tracé_184" data-name="Tracé 184" class="cls-13" d="m159.2,170.1c-6,.9-12-.1-17.4-2.8-9.1-4.5,3.6,12.9,18.2,12.2,0,0-1.3-3.2-.8-9.4"/>
    <path id="Tracé_185" data-name="Tracé 185" class="cls-12" d="m159.5,127.6c2.4-.1,4.9.3,7.1,1.3,3.1,1.6-4-7.3-7.1-1.3"/>
    <path id="Tracé_186" data-name="Tracé 186" class="cls-12" d="m144.8,130.9s-3.8,1.5-5.3,3.4-.7-8.4,5.3-3.4"/>
    <path id="Tracé_187" data-name="Tracé 187" class="cls-8" d="m129.3,145.6s-4.8-5.2-9.8-4.2-1.2,15.9,9.2,13,.6-8.8.6-8.8"/>
    <path id="Tracé_188" data-name="Tracé 188" class="cls-5" d="m125.7,147.7s-1.5-3.8-5.1-3.3"/>
    <path id="Tracé_189" data-name="Tracé 189" class="cls-13" d="m124.6,141.5s10.1-5.2,10.1-22.8-25.8,1.9-10.1,22.8"/>
    <path id="Tracé_190" data-name="Tracé 190" class="cls-5" d="m127.3,155.1s3.8,18.5,1.7,33.5"/>
    <path id="Tracé_191" data-name="Tracé 191" class="cls-5" d="m159.4,171c0,4.6,2.1,15.4,4.5,17.3"/>
    <path id="Tracé_192" data-name="Tracé 192" class="cls-5" d="m170.4,138.5c3,19.1,0,32-13.8,32.4"/>
    <path id="Tracé_193" data-name="Tracé 193" class="cls-5" d="m151.7,155.7s-.9,4.5,5.4,4.9"/>
    <path id="Tracé_194" data-name="Tracé 194" class="cls-8" d="m145.2,339s.4-25.7,14.9-30.9c0,0,23.2.2,41.4-6s27.9,29.2,27.9,29.2c0,0-4.6,5-15.7-9.6-.1-.2-.4-.2-.5,0-.1,0-.2.2-.1.4l2.7,11.1"/>
    <path id="Tracé_195" data-name="Tracé 195" class="cls-5" d="m145.2,339s.4-25.7,14.9-30.9c0,0,23.2.2,41.4-6s27.9,29.2,27.9,29.2c0,0-4.6,5-15.7-9.6-.1-.2-.4-.2-.5,0-.1,0-.2.2-.1.4l2.7,11.1"/>
    <path id="Tracé_196" data-name="Tracé 196" class="cls-8" d="m191.1,318.1s6.9-6.4,11.4-7.3,11.1,10.9,11.1,10.9"/>
    <path id="Tracé_197" data-name="Tracé 197" class="cls-5" d="m191.1,318.1s6.9-6.4,11.4-7.3,11.1,10.9,11.1,10.9"/>
    <path id="Tracé_198" data-name="Tracé 198" class="cls-8" d="m190.3,323.6s14.7-5.9,13.8,5"/>
    <path id="Tracé_199" data-name="Tracé 199" class="cls-5" d="m190.3,323.6s14.7-5.9,13.8,5"/>
    <path id="Tracé_200" data-name="Tracé 200" class="cls-5" d="m128.5,187.7s9.1,29.7,32.2,29.9c19.7.2,3.4-28.9,3.4-28.9"/>
    <path id="Tracé_201" data-name="Tracé 201" class="cls-3" d="m145.3,98.6c-14.2-2-36.9-26.1-55.6,38.1"/>
    <path id="Tracé_202" data-name="Tracé 202" class="cls-8" d="m95.8,341.2l47.5,4.3s11-.5,25.7-5.9"/>
    <path id="Tracé_203" data-name="Tracé 203" class="cls-5" d="m95.8,341.2l47.5,4.3s11-.5,25.7-5.9"/>
    <path id="Tracé_204" data-name="Tracé 204" class="cls-8" d="m194.5,231.4s.9,13.3,7.7,22.7c6.9,9.4-4.1,47.8-4.1,47.8"/>
    <path id="Tracé_205" data-name="Tracé 205" class="cls-5" d="m194.5,231.4s.9,13.3,7.7,22.7c6.9,9.4-4.1,47.8-4.1,47.8"/>
    <path id="Tracé_206" data-name="Tracé 206" class="cls-11" d="m7.3,351.5h456.8c4,0,7.3-3.3,7.3-7.3s-3.3-7.3-7.3-7.3H7.3c-4,0-7.3,3.3-7.3,7.3s3.3,7.3,7.3,7.3"/>
    <path id="Tracé_207" data-name="Tracé 207" class="cls-7" d="m431.3,94.5s-3.8,25.1-29,44.8c.8-5.3.5-10.7-3.3-12.7-6.5-3.4-9.5,11.7-10.9,21.9-14.6,7.7-34.2,13.3-60.2,14.1,0,0,21.5-99.6,103.3-68.1"/>
    <path id="Tracé_208" data-name="Tracé 208" class="cls-8" d="m307.4,109.2c9.5-11,24.5-30.7,10.3-32.4-12.7-1.6-29.4,15.5-39.6,27.7-27-5.9-42.9-14-42.9-14,40.2-58.3,89-68,127.3-63.4,2.8,6.3,9.8,20.3,16.8,21,4.7.5,5.4-8.2,5.1-16.7l.8.2c25,7,43.1,28.5,45.9,54.3l.8,7.7c-47.9,17.2-91,19-124.5,15.5"/>
    <path id="Tracé_209" data-name="Tracé 209" class="cls-5" d="m307.4,109.2c9.5-11,24.5-30.7,10.3-32.4-12.7-1.6-29.4,15.5-39.6,27.7-27-5.9-42.9-14-42.9-14,40.2-58.3,89-68,127.3-63.4,2.8,6.3,9.8,20.3,16.8,21,4.7.5,5.4-8.2,5.1-16.7l.8.2c25,7,43.1,28.5,45.9,54.3l.8,7.7c-47.9,17.2-91,19-124.5,15.5Z"/>
    <path id="Tracé_210" data-name="Tracé 210" class="cls-5" d="m235.2,90.6s92.9-78.2,196.6,3.1c0,0-1.5,54.4-27.2,92.7"/>
    <path id="Tracé_211" data-name="Tracé 211" class="cls-5" d="m442.4,165.5s15.7-38.8,6.8-74.3"/>
    <path id="Tracé_212" data-name="Tracé 212" class="cls-9" d="m259.7,192c0,3.8,3.1,7,7,7s7-3.1,7-7-3.1-7-7-7-7,3.1-7,7h0"/>
    <circle id="Ellipse_11" data-name="Ellipse 11" class="cls-5" cx="235.6" cy="127.8" r="3.6"/>
    <path id="Tracé_213" data-name="Tracé 213" class="cls-14" d="m274.4,337.6h154.9c2.5,0,4.6-1.8,4.9-4.3l12-95.7c.3-2.7-1.6-5.2-4.3-5.5-.2,0-.4,0-.6,0h-154.9c-2.5,0-4.6,1.9-4.9,4.3l-12,95.7c-.3,2.7,1.6,5.2,4.3,5.5.2,0,.4,0,.6,0"/>
    <path id="Tracé_214" data-name="Tracé 214" class="cls-14" d="m301.7,330.6h-120.7c-2,0-3.6,1.6-3.6,3.6s1.6,3.6,3.6,3.6h120.7c2,0,3.6-1.6,3.6-3.6s-1.6-3.6-3.6-3.6"/>
    <path id="Tracé_215" data-name="Tracé 215" class="cls-12" d="m352.6,286.4c-.4,6.2,3.6,11.5,9,11.9s10.1-4.3,10.6-10.5"/>
    <path id="Tracé_216" data-name="Tracé 216" class="cls-2" d="m352.6,286.4c-.4,6.2,3.6,11.5,9,11.9s10.1-4.3,10.6-10.5"/>
    <rect id="Rectangle_179" data-name="Rectangle 179" class="cls-1" x="0" width="471.5" height="351.5"/>
  </g>
</svg>